<svg width="132" height="40" xmlns="http://www.w3.org/2000/svg" xmlns:xlink="http://www.w3.org/1999/xlink"><defs><path id="a" d="M.301.306h14.371v15.119H.302z"/></defs><g fill="none" fill-rule="evenodd"><path d="M0 39.292v-15.12h5.621c4.738 0 7.911 3.129 7.911 7.549 0 4.465-3.173 7.57-7.888 7.57H0zm10.812-7.571c0-2.901-1.813-5.213-5.168-5.213H2.652v10.449h2.97c3.286 0 5.19-2.357 5.19-5.236zM24.532 24.173V39.29H34.89v-2.334h-7.707V32.74h7.55v-2.334h-7.55v-3.9h7.707v-2.334zM45.867 24.173V39.29h9.317v-2.334h-6.665V24.173zM80.261 24.173V39.29h2.652v-6.55h7.548v-2.334h-7.548v-3.9h7.705v-2.334zM101.277 24.173V39.29h9.316v-2.334h-6.664V24.173z" fill="#FFF"/><g transform="translate(116.667 23.866)"><mask id="b" fill="#fff"><use xlink:href="#a"/></mask><path fill="#FFF" mask="url(#b)" d="M11.635.306l-4.148 6.46-4.15-6.46H.301l5.87 8.839v6.28h2.652v-6.28l5.85-8.839z"/></g><path d="M68.544 6.186c-.098-3.182-.464-5.31-.464-5.31C68.01.42 67.732 0 67.28 0c-.452 0-.732.419-.805.876 0 0-.363 2.128-.459 5.31l-6.185 3.772v1.908s1.024-.326 2.721-.884c1.167-.384 2.683-.57 3.52-.648a93.97 93.97 0 0 0 .404 4.84l-2.593 1.59v.71h6.784v-.71l-2.583-1.584c.127-1.162.303-2.986.404-4.846.838.078 2.354.264 3.519.648 1.7.558 2.723.884 2.723.884V9.958l-6.186-3.772zM65.934 30.854v9.012h2.683v-9.012l-1.341-10.699z" fill="#FFF"/></g></svg>